<?xml version="1.0" encoding="utf-8"?>
<!-- Generator: Adobe Illustrator 25.2.0, SVG Export Plug-In . SVG Version: 6.00 Build 0)  -->
<svg version="1.1" id="Layer_1" xmlns="http://www.w3.org/2000/svg" xmlns:xlink="http://www.w3.org/1999/xlink" x="0px" y="0px"
	 viewBox="0 0 1280 1024" style="enable-background:new 0 0 1280 1024;" xml:space="preserve">
<g>
	<path d="M465.37,660.13V620.2h23.12c2.82,0,5.42,0.48,7.8,1.43c2.38,0.95,4.43,2.29,6.15,4.01c1.72,1.72,3.07,3.78,4.04,6.18
		c0.97,2.4,1.46,5.04,1.46,7.94s-0.49,5.58-1.46,8.07c-0.97,2.49-2.32,4.64-4.04,6.45c-1.72,1.81-3.77,3.24-6.15,4.28
		c-2.38,1.04-4.98,1.57-7.8,1.57H465.37z M488.5,653.15c1.79,0,3.45-0.33,4.97-0.99c1.52-0.66,2.84-1.57,3.95-2.72
		c1.12-1.15,1.99-2.54,2.61-4.15c0.62-1.61,0.93-3.35,0.93-5.22s-0.31-3.6-0.93-5.19c-0.62-1.59-1.49-2.96-2.61-4.09
		c-1.12-1.13-2.44-2.02-3.95-2.66c-1.52-0.64-3.18-0.96-4.97-0.96h-16.2v25.98H488.5z"/>
	<path d="M513.65,660.13V620.2h35.65v6.97h-28.72v25.98h28.78v6.98H513.65z M525.68,642.77v-5.88h22.13v5.88H525.68z"/>
	<path d="M555.34,660.13V620.2h33.89v6.97h-26.97v32.95H555.34z M567.37,643.6v-6.1h20.21v6.1H567.37z"/>
	<path d="M594.44,660.13V620.2h6.98v39.93H594.44z"/>
	<path d="M615.2,630.91v29.22h-6.65v-36.25c0-1.28,0.32-2.3,0.96-3.05c0.64-0.75,1.51-1.13,2.61-1.13c0.51,0,1.01,0.11,1.48,0.33
		c0.48,0.22,0.97,0.59,1.48,1.1l28.18,27.96v-29.22h6.64v36.58c0,1.32-0.32,2.34-0.96,3.08c-0.64,0.73-1.47,1.1-2.5,1.1
		c-1.14,0-2.2-0.49-3.19-1.48L615.2,630.91z"/>
	<path d="M657.05,660.13V620.2h6.97v39.93H657.05z"/>
	<path d="M684.13,660.13v-32.95h-15.16v-6.97h37.29v6.97H691.1v32.95H684.13z"/>
	<path d="M711.26,660.13V620.2h6.97v39.93H711.26z"/>
	<path d="M722.85,620.2h8.51l18.12,30.76l18.07-30.76h8.02l-23.01,38.23c-0.4,0.7-0.88,1.25-1.43,1.65c-0.55,0.4-1.19,0.6-1.92,0.6
		c-0.77,0-1.43-0.2-1.98-0.6c-0.55-0.4-1.03-0.95-1.43-1.65L722.85,620.2z"/>
	<path d="M779.86,660.13V620.2h35.65v6.97h-28.72v25.98h28.78v6.98H779.86z M791.89,642.77v-5.88h22.13v5.88H791.89z"/>
</g>
<g>
	<polygon points="639.99,352.83 566.95,389.41 566.95,462.59 595.36,476.82 639.99,499.17 672.02,483.14 652.19,473.21 
		639.99,479.32 627.8,473.21 584.71,451.63 584.71,451.11 584.71,400.38 639.99,372.69 695.29,400.38 695.29,451.11 713.05,460.01 
		713.05,389.41 	"/>
	<polygon points="639.99,435.34 607.98,451.37 627.8,461.29 639.99,455.19 652.19,461.29 695.29,482.88 695.29,483.4 695.29,534.13 
		639.99,561.82 584.71,534.13 584.71,483.4 566.95,474.5 566.95,545.09 639.99,581.68 713.05,545.09 713.05,474.5 713.05,471.92 
		672.02,451.37 	"/>
</g>
</svg>
